PathFileType	4	(X/Y/Z)	SUBJ32_1_walk_RCNL2025.trc
DataRate	CameraRate	NumFrames	NumMarkers	Units	OrigDataRate	OrigDataStartFrame	OrigNumFrames
100	100	4	25	mm	100	290	331
Frame#	Time	R_Shoulder			L_Shoulder			C7			J_Notch			R_Elbow			L_Elbow			R_Wrist			L_Wrist			R_Asis			L_Asis			Sacral			Thoracic			Sternum			R_Thigh_Lateral			R_Knee_Lateral			R_Shank_Lateral			R_Ankle_Lateral			R_Heel			R_Toe			L_Thigh_Lateral			L_Knee_Lateral			L_Shank_Lateral			L_Ankle_Lateral			L_Heel			L_Toe		
		X1	Y1	Z1	X2	Y2	Z2	X3	Y3	Z3	X4	Y4	Z4	X5	Y5	Z5	X6	Y6	Z6	X7	Y7	Z7	X8	Y8	Z8	X9	Y9	Z9	X10	Y10	Z10	X11	Y11	Z11	X12	Y12	Z12	X13	Y13	Z13	X14	Y14	Z14	X15	Y15	Z15	X16	Y16	Z16	X17	Y17	Z17	X18	Y18	Z18	X19	Y19	Z19	X20	Y20	Z20	X21	Y21	Z21	X22	Y22	Z22	X23	Y23	Z23	X24	Y24	Z24	X25	Y25	Z25
290	2.89000000	1948.438599	1357.699707	-5.439053	1948.257202	1355.724365	-376.133942	1931.767456	1437.282349	-183.608307	2041.792725	1321.116821	-187.550293	1842.335083	1041.269897	103.715286	1884.709717	1044.290161	-485.146149	1894.733337	797.615692	131.936615	2013.624146	819.470947	-493.614822	2015.253296	899.775696	-67.801842	2000.239990	888.873779	-320.076172	1809.814209	941.634888	-179.652573	1812.911987	1203.378540	-186.706970	2102.244385	1101.869507	-192.019852	2030.964966	550.986328	28.656195	2047.780640	466.101440	-16.601213	1999.901611	316.929596	50.745884	1949.028564	96.475540	-60.580971	1903.201294	93.006950	-120.133446	2072.180908	56.809658	-72.697250	1903.116943	543.264526	-392.299103	1902.537720	450.678833	-341.036926	1868.000244	228.538116	-354.298676	1830.465454	50.116699	-254.712936	1778.270752	44.795830	-208.005661	1964.736328	32.512363	-221.412750
291	2.90000000	1958.328613	1356.471069	-4.779885	1958.375854	1355.411255	-375.428345	1941.552246	1436.261841	-182.716721	2051.590332	1320.082642	-186.887558	1850.802246	1040.513062	104.227661	1896.842773	1044.355713	-486.311523	1902.276306	796.645294	132.364834	2029.783569	821.965576	-494.358887	2025.202393	898.914062	-67.619423	2009.053711	887.873047	-319.881378	1819.315430	940.596252	-178.473511	1822.511108	1202.609985	-186.000946	2111.694336	1100.724731	-192.453018	2043.227783	550.674805	28.618057	2060.706543	465.038055	-16.977264	2019.757812	313.261261	50.458656	1982.719727	89.852531	-60.213657	1937.283447	83.717728	-119.959274	2107.933594	56.835720	-71.917709	1909.298340	542.797241	-391.820709	1907.178467	450.201050	-340.406891	1870.461304	228.421921	-353.894409	1830.575928	50.321346	-254.448944	1778.288086	45.203491	-207.655289	1964.742065	32.450352	-221.267532
292	2.91000000	1968.270874	1355.074097	-4.058322	1968.549438	1354.980835	-374.652740	1951.395752	1435.125244	-181.782333	2061.438232	1318.906738	-186.149887	1859.405884	1039.556763	104.778084	1908.978149	1044.361816	-487.423431	1909.979675	795.483124	132.787468	2045.688416	824.323456	-495.065063	2035.135742	897.893372	-67.308983	2017.946045	886.799744	-319.570435	1828.859863	939.388794	-177.340118	1832.133911	1201.736450	-185.255447	2121.165771	1099.434082	-192.757904	2054.663330	549.944519	28.577517	2073.002930	463.588593	-17.330818	2039.296387	309.645203	50.248993	2016.576294	84.018501	-59.707966	1971.590210	75.354912	-119.501793	2143.518555	57.582699	-71.324104	1915.610718	542.307983	-391.424591	1911.916748	449.710449	-339.877075	1872.940552	228.310623	-353.569183	1830.691406	50.552647	-254.202148	1778.324829	45.709099	-207.354736	1964.763184	32.387375	-221.124557
293	2.92000000	1978.260864	1353.535889	-3.264133	1978.788330	1354.442505	-373.800079	1961.305176	1433.896362	-180.814926	2071.340576	1317.611816	-185.328842	1868.143677	1038.415161	105.356499	1921.103760	1044.316162	-488.462830	1917.843079	794.145386	133.198654	2061.309692	826.540253	-495.711426	2045.080688	896.726501	-66.875977	2026.922974	885.675781	-319.155182	1838.463135	938.040283	-176.242615	1841.788574	1200.761230	-184.464981	2130.678955	1098.032715	-192.928802	2065.203369	548.745178	28.500803	2084.709961	461.788483	-17.679865	2058.550537	306.139557	50.119648	2050.417969	79.079033	-59.045315	2005.953003	68.036285	-118.770264	2178.766357	59.099037	-70.869659	1921.992676	541.810425	-391.089844	1916.718750	449.222656	-339.435425	1875.403442	228.216232	-353.303711	1830.814575	50.826176	-253.952087	1778.396606	46.317234	-207.073273	1964.800171	32.324516	-220.985016
